<?xml version="1.0" encoding="UTF-8"?>
<svg id="Layer_2" data-name="Layer 2" xmlns="http://www.w3.org/2000/svg" viewBox="0 0 1336.31 1287.47">
  <defs>
    <style>
      .cls-1 {
        fill: #ffeddf;
        stroke-width: 0px;
      }
    </style>
  </defs>
  <g id="Layer_1-2" data-name="Layer 1">
    <path class="cls-1" d="m1134.4,169.62C999.79,56.45,798.42,0,530.56,0H0v58.35h19.27c58.62,0,96.07,17.91,112.35,53.73,16.28,35.82,24.43,82.77,24.43,141.39v1033.99h70.48c22.05-31.8,48-67.03,67.55-107.29,88.78-182.78-44.95-297.32,1.3-499.05,40.05-174.71,177.03-280.83,221.69-312.12,95.19-66.69,187.38-85.18,241.07-95.37,176.39-33.48,324.45,8.18,404.01,38.08-26,14.58-61.75,39.36-89.47,80.27-75.08,110.81-7.69,216.65-38.73,375.65-3.03,15.5-36.67,178.11-165,282.23-173.42,140.72-409.96,85.56-450.49,75.45,23.79-70.5,56.22-149.01,100.95-231.22,105.06-193.06,235.28-328.01,336.51-415.22-96.99,67.94-262.77,202.81-395.13,427.7-81.51,138.51-126.95,271.45-152.78,380.89h273.29c163.92,0,301.78-27.68,413.59-83.05,111.81-55.09,196.76-131.62,254.56-229.05,57.8-97.7,86.84-210.87,86.84-339.51,0-197.56-67.3-353.07-201.91-466.24Z"/>
  </g>
</svg>