<?xml version="1.0" encoding="UTF-8"?>
<svg id="Layer_2" data-name="Layer 2" xmlns="http://www.w3.org/2000/svg" viewBox="0 0 1390.16 280.9">
  <defs>
    <style>
      .cls-1 {
        fill: #ffeddf;
        stroke-width: 0px;
      }
    </style>
  </defs>
  <g id="Layer_1-2" data-name="Layer 1">
    <g>
      <g>
        <path class="cls-1" d="m32.57,179.84h66.67v8.69h-28.43v78.22h-9.93v-78.22h-28.3v-8.69Z"/>
        <path class="cls-1" d="m101.97,174.62h9.68v92.13h-9.68v-92.13Zm50.28,54.26c0-5.96-1.64-10.61-4.91-13.97-3.27-3.35-7.81-5.03-13.59-5.03-6.95.09-12.38,2.42-16.26,7.01-3.89,4.6-5.84,10.53-5.84,17.82h-3.35c0-7.61,1.15-13.88,3.47-18.81,2.32-4.93,5.65-8.61,10-11.05,4.35-2.44,9.45-3.67,15.33-3.67,5.21,0,9.68,1.04,13.41,3.11s6.56,4.99,8.51,8.75c1.94,3.77,2.92,8.3,2.92,13.59v40.11h-9.68v-37.87Z"/>
        <path class="cls-1" d="m184.66,176.49c1.82,0,3.33.6,4.53,1.8s1.8,2.71,1.8,4.53-.6,3.22-1.8,4.47c-1.2,1.24-2.71,1.86-4.53,1.86s-3.23-.62-4.47-1.86-1.86-2.73-1.86-4.47c0-1.82.62-3.33,1.86-4.53,1.24-1.2,2.73-1.8,4.47-1.8Zm-4.72,24.95h9.56v65.31h-9.56v-65.31Z"/>
        <path class="cls-1" d="m209.49,201.44h9.68v65.31h-9.68v-65.31Zm50.16,27.44c0-5.96-1.64-10.61-4.91-13.97-3.27-3.35-7.81-5.03-13.59-5.03-6.95.09-12.38,2.42-16.26,7.01-3.89,4.6-5.84,10.53-5.84,17.82h-3.35c0-7.61,1.15-13.88,3.47-18.81,2.32-4.93,5.65-8.61,10-11.05,4.35-2.44,9.45-3.67,15.33-3.67,5.21,0,9.68,1.04,13.41,3.11s6.56,4.99,8.51,8.75c1.94,3.77,2.92,8.3,2.92,13.59v40.11h-9.68v-37.87Z"/>
        <path class="cls-1" d="m287.96,174.62h9.68v92.13h-9.68v-92.13Zm43.33,26.82h11.42l-46.06,47.55v-11.92l34.64-35.64Zm-14.28,23.59l28.31,41.72h-11.55l-23.96-35.88,7.2-5.84Z"/>
        <path class="cls-1" d="m446.76,197.84c-3.48-3.22-7.51-5.75-12.1-7.57-4.6-1.82-9.34-2.73-14.22-2.73s-9.6.93-13.91,2.8c-4.3,1.86-8.11,4.43-11.42,7.69-3.31,3.27-5.88,7.04-7.7,11.3-1.82,4.26-2.73,8.88-2.73,13.84s.91,9.6,2.73,13.91c1.82,4.3,4.39,8.11,7.7,11.42,3.31,3.31,7.12,5.9,11.42,7.76,4.3,1.86,8.98,2.79,14.03,2.79,4.55,0,9.1-.89,13.66-2.67,4.55-1.78,8.61-4.16,12.17-7.13l5.84,6.83c-2.81,2.23-6.01,4.22-9.56,5.96-3.56,1.74-7.26,3.09-11.11,4.04-3.85.95-7.72,1.43-11.61,1.43-6.37,0-12.29-1.14-17.75-3.42-5.46-2.27-10.26-5.44-14.4-9.5-4.14-4.05-7.37-8.77-9.68-14.15-2.32-5.38-3.48-11.14-3.48-17.26s1.18-11.84,3.54-17.13c2.36-5.3,5.62-9.98,9.81-14.03,4.18-4.05,9.04-7.2,14.59-9.44,5.54-2.23,11.5-3.35,17.88-3.35,3.97,0,7.88.48,11.73,1.43,3.85.95,7.49,2.3,10.92,4.04,3.44,1.73,6.56,3.85,9.37,6.33l-5.71,6.83Zm-3.35,26.45h8.82v31.78h-8.82v-31.78Z"/>
        <path class="cls-1" d="m471.34,201.44h9.68v65.31h-9.68v-65.31Zm33.15,8.57c-4.88-.08-9.09.93-12.6,3.04s-6.23,5.05-8.13,8.82c-1.9,3.77-2.86,8.17-2.86,13.22l-3.35-.37c0-7.12,1.07-13.16,3.22-18.13,2.15-4.96,5.26-8.77,9.32-11.42,4.05-2.65,8.85-3.97,14.4-3.97v8.82Z"/>
        <path class="cls-1" d="m561.6,230.25c-.16-4.38-1.18-8.17-3.04-11.36-1.86-3.19-4.38-5.65-7.57-7.39-3.19-1.73-6.93-2.61-11.24-2.61-4.55,0-8.55,1.04-11.98,3.11-3.44,2.07-6.15,4.96-8.13,8.69-1.98,3.72-2.98,8.07-2.98,13.04s1.02,9.62,3.04,13.47c2.03,3.85,4.86,6.85,8.51,9,3.64,2.15,7.78,3.23,12.41,3.23,8.28,0,15.02-2.81,20.24-8.44l5.34,5.34c-3.15,3.39-6.95,6.02-11.42,7.88-4.47,1.86-9.4,2.79-14.77,2.79-6.46,0-12.15-1.39-17.07-4.16-4.93-2.77-8.75-6.65-11.49-11.61-2.73-4.96-4.1-10.68-4.1-17.13s1.37-12.15,4.1-17.07c2.73-4.93,6.56-8.77,11.49-11.55,4.92-2.77,10.53-4.2,16.82-4.29,7.03,0,12.87,1.52,17.5,4.53,4.63,3.02,8.05,7.25,10.25,12.67,2.19,5.42,3.08,11.77,2.67,19.06h-55.25v-7.2h46.68Z"/>
        <path class="cls-1" d="m631.01,230.25c-.16-4.38-1.18-8.17-3.04-11.36-1.86-3.19-4.38-5.65-7.57-7.39-3.19-1.73-6.93-2.61-11.24-2.61-4.55,0-8.55,1.04-11.98,3.11-3.44,2.07-6.15,4.96-8.13,8.69-1.98,3.72-2.98,8.07-2.98,13.04s1.02,9.62,3.04,13.47c2.03,3.85,4.86,6.85,8.51,9,3.64,2.15,7.78,3.23,12.41,3.23,8.28,0,15.02-2.81,20.24-8.44l5.34,5.34c-3.15,3.39-6.95,6.02-11.42,7.88-4.47,1.86-9.4,2.79-14.77,2.79-6.46,0-12.15-1.39-17.07-4.16-4.93-2.77-8.75-6.65-11.49-11.61-2.73-4.96-4.1-10.68-4.1-17.13s1.37-12.15,4.1-17.07c2.73-4.93,6.56-8.77,11.49-11.55,4.92-2.77,10.53-4.2,16.82-4.29,7.03,0,12.87,1.52,17.5,4.53,4.63,3.02,8.05,7.25,10.25,12.67,2.19,5.42,3.08,11.77,2.67,19.06h-55.25v-7.2h46.68Z"/>
        <path class="cls-1" d="m652.74,201.44h9.68v65.31h-9.68v-65.31Zm50.16,27.44c0-5.96-1.64-10.61-4.91-13.97-3.27-3.35-7.81-5.03-13.59-5.03-6.95.09-12.38,2.42-16.26,7.01-3.89,4.6-5.84,10.53-5.84,17.82h-3.35c0-7.61,1.15-13.88,3.47-18.81,2.32-4.93,5.65-8.61,10-11.05,4.35-2.44,9.45-3.67,15.33-3.67,5.21,0,9.68,1.04,13.41,3.11s6.56,4.99,8.51,8.75c1.94,3.77,2.92,8.3,2.92,13.59v40.11h-9.68v-37.87Z"/>
        <path class="cls-1" d="m732.08,267.62c-2.23,0-3.93-.6-5.09-1.8s-1.74-2.54-1.74-4.03c0-1.74.58-3.17,1.74-4.29s2.56-1.68,4.22-1.68c1.57,0,2.96.54,4.16,1.62,1.2,1.07,1.8,2.53,1.8,4.35,0,.91-.17,1.76-.5,2.54s-.7,1.6-1.12,2.42l-6.45,14.15h-5.46l6.33-17.88,2.11,4.59Z"/>
        <path class="cls-1" d="m779.39,179.84h9.93v78.34h38.12v8.57h-48.05v-86.91Z"/>
        <path class="cls-1" d="m843.33,176.49c1.82,0,3.33.6,4.53,1.8s1.8,2.71,1.8,4.53-.6,3.22-1.8,4.47c-1.2,1.24-2.71,1.86-4.53,1.86s-3.23-.62-4.47-1.86-1.86-2.73-1.86-4.47c0-1.82.62-3.33,1.86-4.53,1.24-1.2,2.73-1.8,4.47-1.8Zm-4.72,24.95h9.56v65.31h-9.56v-65.31Z"/>
        <path class="cls-1" d="m856.98,201.44h10.18l20.86,56.12,20.73-56.12h9.81l-25.7,65.31h-10.06l-25.83-65.31Z"/>
        <path class="cls-1" d="m971.95,230.25c-.16-4.38-1.18-8.17-3.04-11.36-1.86-3.19-4.38-5.65-7.57-7.39-3.19-1.73-6.93-2.61-11.24-2.61-4.55,0-8.55,1.04-11.98,3.11-3.44,2.07-6.15,4.96-8.13,8.69-1.98,3.72-2.98,8.07-2.98,13.04s1.02,9.62,3.04,13.47c2.03,3.85,4.86,6.85,8.51,9,3.64,2.15,7.78,3.23,12.41,3.23,8.28,0,15.02-2.81,20.24-8.44l5.34,5.34c-3.15,3.39-6.95,6.02-11.42,7.88-4.47,1.86-9.4,2.79-14.77,2.79-6.46,0-12.15-1.39-17.07-4.16-4.93-2.77-8.75-6.65-11.49-11.61-2.73-4.96-4.1-10.68-4.1-17.13s1.37-12.15,4.1-17.07c2.73-4.93,6.56-8.77,11.49-11.55,4.92-2.77,10.53-4.2,16.82-4.29,7.03,0,12.87,1.52,17.5,4.53,4.63,3.02,8.05,7.25,10.25,12.67,2.19,5.42,3.08,11.77,2.67,19.06h-55.25v-7.2h46.68Z"/>
        <path class="cls-1" d="m1084.57,198.46c-3.31-3.39-7.22-6.06-11.73-8.01-4.51-1.94-9.17-2.92-13.97-2.92s-9.48.92-13.79,2.73c-4.3,1.82-8.07,4.37-11.3,7.63-3.23,3.27-5.76,7.06-7.58,11.36-1.82,4.3-2.73,8.94-2.73,13.91s.91,9.48,2.73,13.78c1.82,4.3,4.35,8.07,7.58,11.3,3.22,3.23,6.99,5.77,11.3,7.63,4.3,1.86,8.9,2.79,13.79,2.79s9.41-.93,13.84-2.79c4.43-1.86,8.38-4.45,11.85-7.76l6.09,6.2c-2.81,2.65-5.99,4.97-9.5,6.95-3.52,1.99-7.18,3.52-10.99,4.6-3.81,1.07-7.74,1.61-11.8,1.61-6.29,0-12.15-1.14-17.57-3.42-5.42-2.27-10.18-5.44-14.28-9.5-4.1-4.05-7.3-8.77-9.62-14.15-2.32-5.38-3.48-11.14-3.48-17.26s1.16-11.84,3.48-17.13c2.31-5.3,5.54-9.98,9.68-14.03,4.14-4.05,8.94-7.2,14.4-9.44,5.46-2.23,11.38-3.35,17.75-3.35,3.97,0,7.86.49,11.67,1.49,3.8.99,7.41,2.42,10.8,4.28,3.39,1.86,6.5,4.12,9.31,6.77l-5.96,6.7Z"/>
        <path class="cls-1" d="m1104.18,174.62h9.68v92.13h-9.68v-92.13Z"/>
        <path class="cls-1" d="m1182.03,230.25c-.16-4.38-1.18-8.17-3.04-11.36-1.86-3.19-4.38-5.65-7.57-7.39-3.19-1.73-6.93-2.61-11.24-2.61-4.55,0-8.55,1.04-11.98,3.11-3.44,2.07-6.15,4.96-8.13,8.69-1.98,3.72-2.98,8.07-2.98,13.04s1.02,9.62,3.04,13.47c2.03,3.85,4.86,6.85,8.51,9,3.64,2.15,7.78,3.23,12.41,3.23,8.28,0,15.02-2.81,20.24-8.44l5.34,5.34c-3.15,3.39-6.95,6.02-11.42,7.88-4.47,1.86-9.4,2.79-14.77,2.79-6.46,0-12.15-1.39-17.07-4.16-4.93-2.77-8.75-6.65-11.49-11.61-2.73-4.96-4.1-10.68-4.1-17.13s1.37-12.15,4.1-17.07c2.73-4.93,6.56-8.77,11.49-11.55,4.92-2.77,10.53-4.2,16.82-4.29,7.03,0,12.87,1.52,17.5,4.53,4.63,3.02,8.05,7.25,10.25,12.67,2.19,5.42,3.08,11.77,2.67,19.06h-55.25v-7.2h46.68Z"/>
        <path class="cls-1" d="m1223.87,236.08c-5.46,0-9.6.91-12.41,2.73-2.81,1.82-4.22,4.6-4.22,8.32s1.35,6.73,4.04,9c2.69,2.28,6.35,3.41,10.99,3.41,3.8,0,7.24-.62,10.31-1.86,3.06-1.24,5.61-3.02,7.63-5.34,2.03-2.31,3.42-5.13,4.16-8.44l2.48,7.82c-2.32,5.21-5.76,9.09-10.31,11.61-4.55,2.53-9.93,3.79-16.14,3.79-4.47,0-8.38-.87-11.73-2.61s-5.94-4.1-7.76-7.08-2.73-6.33-2.73-10.06c0-5.63,2.15-10.1,6.45-13.41,4.3-3.31,10.31-5.01,18-5.09h23.22v7.2h-21.98Zm20.24-11.55c0-4.97-1.47-8.82-4.41-11.55-2.94-2.73-7.3-4.1-13.1-4.1-3.64,0-7.16.67-10.56,1.99-3.39,1.32-6.79,3.19-10.18,5.59l-4.1-6.33c2.81-1.9,5.54-3.52,8.19-4.84,2.64-1.32,5.46-2.34,8.44-3.04s6.33-1.06,10.06-1.06c8.11,0,14.32,2.01,18.62,6.02,4.3,4.02,6.5,9.5,6.58,16.45l.12,43.08h-9.43l-.25-42.21Z"/>
        <path class="cls-1" d="m1271.8,201.44h9.68v65.31h-9.68v-65.31Zm50.16,27.44c0-5.96-1.64-10.61-4.91-13.97-3.27-3.35-7.81-5.03-13.59-5.03-6.95.09-12.38,2.42-16.26,7.01-3.89,4.6-5.84,10.53-5.84,17.82h-3.35c0-7.61,1.15-13.88,3.47-18.81,2.32-4.93,5.65-8.61,10-11.05s9.45-3.67,15.33-3.67c5.21,0,9.68,1.04,13.41,3.11,3.72,2.07,6.56,4.99,8.51,8.75,1.94,3.77,2.92,8.3,2.92,13.59v40.11h-9.68v-37.87Z"/>
        <path class="cls-1" d="m1351.63,255.58c1.65,0,3.06.58,4.22,1.73,1.15,1.16,1.73,2.61,1.73,4.35s-.58,3.19-1.73,4.35c-1.16,1.16-2.57,1.74-4.22,1.74s-3.19-.58-4.34-1.74c-1.16-1.16-1.74-2.61-1.74-4.35s.58-3.19,1.74-4.35c1.15-1.15,2.61-1.73,4.34-1.73Zm-4.71-74.12h9.31v20.86l-1.37,38.62h-6.45l-1.49-38.62v-20.86Z"/>
      </g>
      <g>
        <path class="cls-1" d="m192.65,138.61c-9.37,0-17.55-2.14-24.51-6.43-6.96-4.28-12.32-10.14-16.07-17.58-3.75-7.43-5.62-15.83-5.62-25.21,0-10.72,1.94-19.72,5.83-27.02,3.88-7.29,9.17-12.82,15.87-16.57,6.69-3.75,14.19-5.62,22.5-5.62s15.8,1.68,22.5,5.02c6.69,3.35,11.98,8.03,15.87,14.06,3.88,6.03,5.83,13.06,5.83,21.1l-.8,12.66h-60.47c0,13.26,2.04,22.67,6.13,28.22,4.09,5.55,9.41,8.33,15.97,8.33,6.96,0,12.62-1.61,16.97-4.82,4.35-3.21,8.27-7.16,11.75-11.85l6.23,4.62c-1.88,2.95-4.39,6.06-7.53,9.34-3.15,3.28-7.17,6.06-12.06,8.34-4.89,2.27-11.02,3.42-18.38,3.42Zm-19.08-54.65h34.15c0-13.26-1.57-22.36-4.72-27.32-3.15-4.95-7.27-7.43-12.35-7.43-2.95,0-5.72,1.07-8.34,3.21-2.61,2.14-4.72,5.72-6.33,10.75-1.61,5.02-2.41,11.96-2.41,20.79Z"/>
        <path class="cls-1" d="m247.5,136.6V30.13c0-6.03-.84-10.88-2.51-14.56-1.68-3.68-5.53-5.53-11.56-5.53h-2.01v-6.02h24.11c4.69,0,8.34.8,10.95,2.41,2.61,1.61,4.45,4.29,5.52,8.03,1.07,3.75,1.61,8.98,1.61,15.67v17.68c2.28-1.74,5.39-3.45,9.34-5.12,3.95-1.67,8.2-2.51,12.75-2.51s9.07.54,13.56,1.61c4.49,1.07,8.6,2.98,12.35,5.72,3.75,2.75,6.73,6.5,8.94,11.25,2.21,4.76,3.31,10.82,3.31,18.18v59.66h-26.11v-58.66c0-6.96-.84-12.46-2.51-16.48-1.68-4.02-3.88-6.9-6.63-8.64-2.75-1.74-5.72-2.61-8.94-2.61-3.48,0-6.67.87-9.54,2.61-2.88,1.74-5.05,3.21-6.53,4.42v79.35h-26.12Z"/>
        <path class="cls-1" d="m354.77,136.6v-68.3c0-6.02-.84-10.88-2.51-14.56-1.68-3.68-5.52-5.53-11.55-5.53h-2.01v-6.02h24.11c4.69,0,8.34.8,10.95,2.41s4.45,4.29,5.52,8.03c1.07,3.75,1.61,8.98,1.61,15.67v68.3h-26.11Zm13.06-105.26c-5.09,0-8.87-1.54-11.35-4.62-2.48-3.08-3.72-6.63-3.72-10.65,0-3.48,1.07-6.22,3.21-8.24,2.14-2.01,4.76-3.01,7.84-3.01,5.09,0,8.87,1.54,11.35,4.62,2.48,3.09,3.72,6.63,3.72,10.65,0,3.48-1.07,6.23-3.21,8.24-2.14,2.01-4.76,3.02-7.84,3.02Z"/>
        <path class="cls-1" d="m402.79,136.6v-68.3c0-6.02-.8-10.88-2.41-14.56-1.61-3.68-5.43-5.53-11.45-5.53h-2.01v-6.02h19.89c4.02,0,7.5.57,10.44,1.71s5.16,3.11,6.63,5.93h.8c2.41-2.14,5.72-4.29,9.94-6.43,4.22-2.14,9.34-3.21,15.37-3.21,5.09,0,9.51.7,13.26,2.11,3.75,1.4,6.86,3.01,9.34,4.82,2.47,1.81,4.18,3.31,5.12,4.52,2.68-2.94,6.16-5.59,10.45-7.93,4.28-2.34,10.31-3.52,18.08-3.52s13.86,1.28,19.08,3.82c5.22,2.54,9.2,6.53,11.96,11.95,2.74,5.43,4.12,12.49,4.12,21.2v59.46h-26.12v-59.66c0-9.77-1.54-16.67-4.62-20.69-3.09-4.02-6.9-6.03-11.45-6.03-3.76,0-7.13.74-10.15,2.21-3.02,1.48-5.39,3.28-7.13,5.43,1.07,2.01,1.88,4.72,2.41,8.13.54,3.42.8,7.13.8,11.15v59.46h-26.11v-59.66c0-9.77-1.54-16.67-4.62-20.69s-6.9-6.03-11.45-6.03c-2.54,0-5.12.7-7.73,2.11-2.61,1.41-4.72,2.85-6.33,4.32v79.96h-26.11Z"/>
        <path class="cls-1" d="m562.7,136.6v-68.3c0-6.02-.84-10.88-2.51-14.56-1.68-3.68-5.52-5.53-11.55-5.53h-2.01v-6.02h24.11c4.69,0,8.34.8,10.95,2.41,2.61,1.61,4.45,4.29,5.52,8.03,1.07,3.75,1.61,8.98,1.61,15.67v68.3h-26.11Zm13.06-105.26c-5.09,0-8.87-1.54-11.35-4.62-2.48-3.08-3.72-6.63-3.72-10.65,0-3.48,1.07-6.22,3.21-8.24,2.14-2.01,4.76-3.01,7.84-3.01,5.09,0,8.87,1.54,11.35,4.62,2.48,3.09,3.72,6.63,3.72,10.65,0,3.48-1.07,6.23-3.21,8.24-2.14,2.01-4.76,3.02-7.84,3.02Z"/>
        <path class="cls-1" d="m712.76,140.62c-13.26,0-24.88-3.11-34.85-9.34-9.98-6.22-17.71-14.63-23.2-25.21-5.49-10.58-8.24-22.5-8.24-35.76s2.75-25.18,8.24-35.76c5.49-10.58,13.23-18.98,23.2-25.21,9.98-6.22,21.6-9.34,34.85-9.34s25.01,3.11,34.85,9.34c9.84,6.23,17.51,14.64,23.01,25.21,5.49,10.58,8.24,22.5,8.24,35.76s-2.75,25.18-8.24,35.76c-5.5,10.58-13.16,18.98-23.01,25.21-9.84,6.23-21.46,9.34-34.85,9.34Zm0-9.04c8.17,0,15.1-2.38,20.79-7.13,5.69-4.76,10.04-11.72,13.06-20.89,3.02-9.17,4.52-20.25,4.52-33.25s-1.51-24.24-4.52-33.35c-3.01-9.1-7.36-16.04-13.06-20.79-5.69-4.75-12.63-7.13-20.79-7.13s-14.9,2.38-20.59,7.13c-5.69,4.76-10.04,11.69-13.06,20.79-3.02,9.11-4.52,20.22-4.52,33.35s1.51,24.07,4.52,33.25c3.01,9.17,7.36,16.14,13.06,20.89,5.69,4.75,12.56,7.13,20.59,7.13Z"/>
        <path class="cls-1" d="m796.53,136.6v-68.3c0-6.02-.8-10.88-2.41-14.56-1.61-3.68-5.43-5.53-11.45-5.53h-2.01v-6.02h19.89c4.55,0,8.13.57,10.75,1.71,2.61,1.14,4.65,3.05,6.12,5.72,2.42-2.14,5.73-4.25,9.95-6.33,4.21-2.07,9.34-3.11,15.37-3.11,2.94,0,5.62.34,8.03,1.01s4.49,1.68,6.23,3.01c2.28,1.61,3.98,3.55,5.12,5.83,1.13,2.28,1.71,3.35,1.71,3.21l-10.25,7.84c-1.21-1.74-2.98-3.48-5.33-5.22-2.34-1.74-5.19-2.61-8.53-2.61-4.29,0-7.91.61-10.85,1.81-2.95,1.21-5.29,2.68-7.03,4.42.27,2.41.47,4.35.6,5.83s.2,2.75.2,3.81v67.5h-26.11Z"/>
        <path class="cls-1" d="m910.63,176.78c-9.37,0-17.78-.97-25.21-2.92-7.43-1.94-13.3-5.19-17.58-9.74-4.29-4.55-6.43-10.72-6.43-18.48,0-4.82,1.37-8.98,4.12-12.46,2.74-3.48,6.19-6.36,10.34-8.64,4.15-2.28,8.37-3.95,12.66-5.02-2.55-.8-4.69-2.07-6.43-3.82-1.75-1.74-2.61-4.15-2.61-7.23,0-2.28.67-4.25,2.01-5.93,1.34-1.67,3.35-3.04,6.03-4.12-5.62-2.01-10.38-5.45-14.26-10.35-3.88-4.88-5.83-10.41-5.83-16.57,0-7.76,1.94-13.92,5.83-18.48s9.07-7.84,15.57-9.84c6.49-2.01,13.76-3.02,21.79-3.02h42.19v5.43l-18.08,2.41c5.63,2.14,10.21,5.42,13.76,9.84,3.54,4.42,5.32,8.98,5.32,13.66,0,7.63-1.78,13.73-5.32,18.28-3.55,4.55-8.57,7.81-15.07,9.75-6.5,1.94-14.1,2.91-22.8,2.91-6.02,0-10.88.34-14.56,1.01-3.69.67-5.52,2.35-5.52,5.02,0,2.28,1.84,3.71,5.52,4.32,3.68.6,8.54.97,14.56,1.1,9.11.14,17.38,1.38,24.81,3.72,7.44,2.35,13.36,5.83,17.78,10.44,4.42,4.62,6.63,10.48,6.63,17.58,0,7.77-2.14,13.93-6.43,18.48-4.29,4.55-10.15,7.8-17.58,9.74s-15.84,2.92-25.21,2.92Zm0-9.04c6.7,0,12.06-1.77,16.07-5.32s6.03-9.14,6.03-16.78c0-6.03-1.88-10.98-5.63-14.87-3.75-3.88-8.7-6.43-14.87-7.63l-9.44-1.01c-4.42,1.88-7.91,4.66-10.45,8.34-2.54,3.69-3.81,8.74-3.81,15.17,0,7.63,2.01,13.23,6.03,16.78s9.37,5.32,16.07,5.32Zm0-73.32c4.69,0,8.54-1.74,11.55-5.22,3.02-3.48,4.52-9.37,4.52-17.68,0-7.63-1.51-13.42-4.52-17.38-3.01-3.95-6.86-5.93-11.55-5.93s-8.53,1.85-11.55,5.53c-3.01,3.68-4.52,9.61-4.52,17.78s1.51,14.2,4.52,17.68c3.02,3.48,6.86,5.22,11.55,5.22Z"/>
        <path class="cls-1" d="m997.82,138.61c-5.62,0-10.55-.68-14.76-2.01-4.22-1.34-7.77-3.18-10.65-5.52s-5.05-5.19-6.53-8.54-2.21-7.03-2.21-11.05c0-6.43,1.51-11.88,4.52-16.37,3.01-4.49,8.46-7.9,16.37-10.25,7.9-2.34,19.02-3.51,33.35-3.51h3.01c0-8.04-.74-14.4-2.21-19.08-1.48-4.69-3.65-8.04-6.53-10.04-2.88-2.01-6.33-3.02-10.35-3.02-4.55,0-8.64,1.14-12.25,3.42-3.62,2.28-6.23,7.17-7.84,14.66h-11.05c0-3.48.23-7.03.7-10.65.47-3.61,1.9-6.76,4.31-9.44,2.42-2.68,6.4-4.52,11.96-5.53,5.55-1,11.62-1.51,18.18-1.51s12.39.87,17.48,2.61c5.09,1.74,9.41,4.35,12.96,7.84,3.54,3.48,6.22,7.87,8.03,13.16,1.81,5.29,2.71,11.48,2.71,18.58v54.24h-17.08l-7.03-9.04h-1.01c-1.75,2.81-4.69,5.36-8.84,7.63-4.15,2.27-9.24,3.42-15.26,3.42Zm6.03-10.04c4.42,0,8.1-1.47,11.05-4.42,2.95-2.94,4.95-5.83,6.03-8.64v-25.11h-3.01c-9.65,0-16.57,1.74-20.79,5.22-4.22,3.48-6.33,8.77-6.33,15.87,0,5.62,1.17,9.88,3.52,12.76,2.34,2.88,5.52,4.32,9.54,4.32Z"/>
        <path class="cls-1" d="m1067.73,136.6v-68.3c0-6.02-.8-10.88-2.41-14.56-1.61-3.68-5.43-5.53-11.45-5.53h-2.01v-6.02h19.89c4.55,0,8.13.57,10.75,1.71,2.61,1.14,4.65,3.05,6.12,5.72,2.42-2.28,5.86-4.42,10.35-6.43,4.49-2.01,10.81-3.02,18.98-3.02s15.47,1.28,21.1,3.82c5.62,2.54,9.87,6.53,12.75,11.95,2.88,5.43,4.32,12.49,4.32,21.2v59.46h-26.11v-59.66c0-6.56-.84-11.78-2.51-15.67-1.68-3.88-3.92-6.7-6.73-8.44-2.81-1.74-6.1-2.61-9.84-2.61s-7.07.47-9.94,1.4c-2.88.94-5.26,2.14-7.13,3.62v81.36h-26.11Z"/>
        <path class="cls-1" d="m1177.22,136.6v-68.3c0-6.02-.84-10.88-2.51-14.56-1.68-3.68-5.52-5.53-11.55-5.53h-2.01v-6.02h24.11c4.69,0,8.34.8,10.95,2.41,2.61,1.61,4.45,4.29,5.52,8.03,1.07,3.75,1.61,8.98,1.61,15.67v68.3h-26.11Zm13.06-105.26c-5.09,0-8.87-1.54-11.35-4.62-2.48-3.08-3.72-6.63-3.72-10.65,0-3.48,1.07-6.22,3.21-8.24,2.14-2.01,4.76-3.01,7.84-3.01,5.09,0,8.87,1.54,11.35,4.62,2.48,3.09,3.72,6.63,3.72,10.65,0,3.48-1.07,6.23-3.21,8.24-2.14,2.01-4.76,3.02-7.84,3.02Z"/>
        <path class="cls-1" d="m1264.6,138.61c-10.72,0-19.65-2.25-26.81-6.73-7.17-4.49-12.52-10.48-16.07-17.98-3.55-7.5-5.33-15.67-5.33-24.51s1.78-17.17,5.33-24.61c3.55-7.43,8.91-13.39,16.07-17.88,7.16-4.49,16.1-6.73,26.81-6.73,7.63,0,14.09.54,19.39,1.61,5.29,1.07,9.2,2.88,11.75,5.43,2.54,2.54,4.02,5.96,4.42,10.24.4,4.29.61,10.25.61,17.88h-6.03c-.54-8.57-3.18-15.07-7.94-19.49-4.75-4.42-11.15-6.63-19.18-6.63-4.83,0-9.04,1.44-12.66,4.32-3.62,2.88-6.43,7.3-8.44,13.26-2.01,5.96-3.01,13.49-3.01,22.6s.93,16.24,2.81,22.2c1.87,5.96,4.66,10.45,8.34,13.46,3.68,3.01,8.34,4.52,13.96,4.52,6.96,0,12.63-1.61,16.98-4.82s8.27-7.16,11.75-11.85l6.22,4.62c-1.88,2.95-4.38,6.06-7.53,9.34-3.14,3.28-7.23,6.06-12.25,8.34-5.02,2.27-11.42,3.42-19.19,3.42Z"/>
        <path class="cls-1" d="m1348.98,138.61c-8.31,0-15.1-.74-20.39-2.21-5.29-1.47-9.27-3.48-11.95-6.02-2.42-2.28-3.82-5.56-4.22-9.85-.4-4.28-.61-8.97-.61-14.06h7.03c1.07,6.43,3.68,11.89,7.83,16.38,4.15,4.49,10.25,6.73,18.28,6.73,7.5,0,12.73-1.3,15.67-3.92,2.94-2.61,4.42-5.86,4.42-9.74s-1.74-7-5.22-9.34c-3.48-2.34-7.77-4.65-12.86-6.93l-10.44-4.42c-8.04-3.48-14.33-7.43-18.89-11.85-4.55-4.42-6.83-9.91-6.83-16.47,0-8.7,3.61-15.33,10.84-19.89,7.24-4.55,16.34-6.83,27.33-6.83,8.3,0,15.09.74,20.39,2.21,5.29,1.48,9.27,3.48,11.96,6.03,2.41,2.28,3.81,5.56,4.22,9.84.4,4.29.6,8.98.6,14.06h-7.03c-1.07-6.43-3.68-11.88-7.83-16.37-4.16-4.49-10.25-6.73-18.28-6.73-6.03,0-10.38,1.31-13.06,3.92-2.68,2.61-4.02,5.86-4.02,9.74,0,3.61,1.27,6.53,3.82,8.74,2.54,2.21,6.02,4.26,10.44,6.13l12.06,5.02c9.24,3.88,16.2,7.93,20.89,12.15,4.69,4.22,7.03,9.88,7.03,16.98,0,8.7-3.88,15.33-11.65,19.89-7.77,4.55-17.61,6.83-29.53,6.83Z"/>
        <path class="cls-1" d="m116.82,21.48c-13.86-11.65-34.6-17.47-62.18-17.47H0v6.01h1.98c6.04,0,9.89,1.84,11.57,5.53,1.68,3.69,2.52,8.52,2.52,14.56v106.48h7.26c2.27-3.28,4.94-6.9,6.96-11.05,9.14-18.82-4.63-30.62.13-51.39,4.12-17.99,18.23-28.92,22.83-32.14,9.8-6.87,19.3-8.77,24.83-9.82,18.16-3.45,33.41.84,41.61,3.92-2.68,1.5-6.36,4.05-9.21,8.27-7.73,11.41-.79,22.31-3.99,38.68-.31,1.6-3.78,18.34-16.99,29.06-17.86,14.49-42.22,8.81-46.39,7.77,2.45-7.26,5.79-15.35,10.4-23.81,10.82-19.88,24.23-33.78,34.65-42.76-9.99,7-27.06,20.89-40.69,44.04-8.39,14.26-13.07,27.95-15.73,39.22h28.14c16.88,0,31.08-2.85,42.59-8.55,11.51-5.67,20.26-13.55,26.22-23.59,5.95-10.06,8.94-21.72,8.94-34.96,0-20.35-6.93-36.36-20.79-48.01Z"/>
      </g>
    </g>
  </g>
</svg>