<svg xmlns="http://www.w3.org/2000/svg" viewBox="0 0 16 16" fill="#000000" id="X-Bold--Streamline-Phosphor" height="16" width="16"><desc>X Bold Streamline Icon: https://streamlinehq.com</desc><path d="M15.5092 13.9255375c0.61044375 0.61045 0.33114375 1.6528125 -0.50274375 1.87625 -0.38700625 0.1037 -0.7999375 -0.00694375 -1.08325 -0.29025625L8 9.58645625l-5.925075 5.92320625c-0.61045 0.61045 -1.65280625 0.33115 -1.87624375 -0.5027375 -0.1037 -0.38700625 0.00694375 -0.7999375 0.29025625 -1.08325l5.92506875 -5.92320625L0.4908 2.07539375c-0.61044375 -0.61045 -0.33115 -1.65280625 0.50274375 -1.87625 0.38700625 -0.10369375 0.7999375 0.00695 1.08325 0.29025625L8 6.414475l5.925075 -5.92600625c0.61044375 -0.61045 1.65280625 -0.33115 1.87624375 0.5027375 0.1037 0.3870125 -0.00694375 0.79994375 -0.29025625 1.08325625l-5.925075 5.92600625Z" stroke-width="0.0625"></path></svg>