<?xml version="1.0" encoding="UTF-8"?>
<svg id="Layer_1" data-name="Layer 1" xmlns="http://www.w3.org/2000/svg" viewBox="0 0 1080 1080">
  <defs>
    <style>
      .cls-1 {
        fill: #2f2d2e;
      }
    </style>
  </defs>
  <path class="cls-1" d="M657.56,420.46c-33.94-28.53-84.71-42.77-152.25-42.77h-133.77v14.71h4.86c14.78,0,24.22,4.52,28.33,13.55,4.11,9.03,6.16,20.87,6.16,35.65v260.71h17.77c5.56-8.02,12.1-16.9,17.03-27.05,22.39-46.09-11.33-74.97.33-125.83,10.1-44.05,44.64-70.81,55.9-78.7,24-16.82,47.24-21.48,60.78-24.05,44.47-8.44,81.81,2.06,101.86,9.6-6.56,3.68-15.57,9.92-22.56,20.24-18.93,27.94-1.94,54.62-9.76,94.71-.76,3.91-9.25,44.91-41.6,71.16-43.73,35.48-103.37,21.57-113.59,19.02,6-17.77,14.18-37.57,25.45-58.3,26.49-48.68,59.32-82.7,84.85-104.69-24.45,17.13-66.26,51.14-99.63,107.84-20.55,34.92-32.01,68.44-38.52,96.04h68.91c41.33,0,76.09-6.98,104.28-20.94,28.19-13.89,49.61-33.19,64.18-57.75,14.57-24.63,21.9-53.17,21.9-85.6,0-49.81-16.97-89.02-50.91-117.56Z"/>
  <path class="cls-1" d="M192.3,514.17c8.85,7.62,20.25,19.42,29.43,36.31,3.91,7.19,6.76,14.06,8.83,20.22-3.55.88-24.24,5.71-39.4-6.6-11.21-9.1-14.15-23.33-14.42-24.67-2.72-13.92,3.17-23.17-3.39-32.85-2.42-3.58-5.55-5.75-7.82-7.02,6.96-2.61,19.91-6.25,35.32-3.33,4.69.89,12.76,2.5,21.08,8.33,3.91,2.74,15.89,12.02,19.39,27.3,4.05,17.64-7.65,27.65.11,43.64,1.72,3.52,3.99,6.6,5.91,9.38h-7.13c-2.25-9.57-6.22-21.2-13.35-33.31-11.57-19.67-26.07-31.46-34.56-37.4Z"/>
  <path class="cls-1" d="M887.71,514.17c-8.85,7.62-20.25,19.42-29.43,36.31-3.91,7.19-6.76,14.06-8.83,20.22,3.55.88,24.24,5.71,39.4-6.6,11.21-9.1,14.15-23.33,14.42-24.67,2.72-13.92-3.17-23.17,3.39-32.85,2.42-3.58,5.55-5.75,7.82-7.02-6.96-2.61-19.91-6.25-35.32-3.33-4.69.89-12.76,2.5-21.08,8.33-3.91,2.74-15.89,12.02-19.39,27.3-4.05,17.64,7.65,27.65-.11,43.64-1.72,3.52-3.99,6.6-5.91,9.38h7.13c2.25-9.57,6.22-21.2,13.35-33.31,11.57-19.67,26.07-31.46,34.56-37.4Z"/>
  <path class="cls-1" d="M540,988.97c-247.56,0-448.97-201.41-448.97-448.97S292.44,91.03,540,91.03s448.97,201.41,448.97,448.97-201.41,448.97-448.97,448.97ZM540,110.55c-236.8,0-429.45,192.65-429.45,429.45s192.65,429.45,429.45,429.45,429.45-192.65,429.45-429.45S776.8,110.55,540,110.55Z"/>
  <g>
    <path class="cls-1" d="M252.99,453.79l-52.62-21.64c-2.98-1.23-5.55-1.8-7.71-1.73-2.16.09-3.85,1.61-5.08,4.58l-.41,1-2.97-1.23,11.1-27c5.61-13.64,12.71-22.7,21.27-27.18,8.58-4.48,17.9-4.65,27.97-.51,6.55,2.7,11.7,6.54,15.46,11.52,3.75,4.98,5.86,10.9,6.34,17.76.47,6.85-1.01,14.44-4.44,22.78l-8.9,21.65ZM257.8,430.81c1.91-4.63,2.44-9.21,1.59-13.73s-2.99-8.7-6.45-12.52c-3.46-3.82-8.17-6.96-14.13-9.41-5.82-2.4-11.3-3.47-16.44-3.22-5.13.25-9.64,1.69-13.5,4.32-3.87,2.62-6.79,6.32-8.74,11.08-.6,1.46-1.09,2.73-1.46,3.81-.36,1.09-.78,2.66-1.24,4.72l56.2,23.11c.87-1.35,1.52-2.41,1.95-3.2.45-.79.81-1.54,1.12-2.27.3-.73.67-1.63,1.1-2.69Z"/>
    <path class="cls-1" d="M296.69,369.51c-2.87,4.12-6.3,7.04-10.3,8.8-4,1.74-8.21,2.31-12.62,1.69-4.4-.63-8.66-2.36-12.77-5.23-4.7-3.26-8.06-6.86-10.07-10.8-2.02-3.93-2.83-7.93-2.43-12.02.39-4.08,1.86-7.94,4.39-11.59,2.54-3.64,5.56-6.41,9.07-8.34,3.51-1.92,7.18-2.8,11.01-2.67,3.83.13,7.51,1.43,11.03,3.88l5.31,4.21-18.45,26.54c5.82,4.04,10.57,6.02,14.26,5.92,3.69-.1,6.53-1.58,8.53-4.46,2.13-3.05,3.15-6.02,3.06-8.92-.08-2.89-.62-5.81-1.61-8.77l3.93-1.32c.72,1.73,1.32,3.77,1.8,6.16.48,2.38.48,4.99-.02,7.83-.5,2.84-1.87,5.87-4.11,9.1ZM266.89,361.21l10.43-14.98c-5.82-4.04-10.29-6.13-13.43-6.26s-5.48.92-7.03,3.15c-.9,1.29-1.28,2.84-1.13,4.63.14,1.8,1.08,3.82,2.78,6.06,1.72,2.24,4.51,4.7,8.39,7.4Z"/>
    <path class="cls-1" d="M314.27,343.91l-39.99-40.47c-2.27-2.3-4.41-3.82-6.43-4.59-2.02-.77-4.17-.03-6.46,2.23l-.76.76-2.27-2.3,9.17-9.05c1.78-1.75,3.47-2.82,5.07-3.19,1.59-.37,3.3-.05,5.12.98,1.81,1.02,3.97,2.8,6.49,5.35l6.64,6.72c.21-1.52.75-3.34,1.63-5.45.87-2.12,2.17-4.04,3.9-5.75,1.73-1.71,3.65-3.2,5.77-4.48,2.11-1.28,4.38-2.1,6.84-2.47,2.46-.36,4.99-.06,7.63.92,2.62.98,5.32,2.87,8.09,5.67l22.41,22.68-9.93,9.81-22.03-22.3c-2.62-2.64-5-4.41-7.15-5.32-2.14-.9-4.07-1.16-5.77-.79-1.7.37-3.15,1.15-4.37,2.36-1.32,1.31-2.21,2.84-2.65,4.58-.44,1.74-.71,3.13-.82,4.14l29.8,30.17-9.92,9.81Z"/>
    <path class="cls-1" d="M331.42,253.45c-2.19,1.61-4.31,2.14-6.35,1.6s-3.7-1.69-4.97-3.41c-1.11-1.51-1.51-3.02-1.22-4.57.29-1.54,1.1-2.8,2.42-3.77,2.19-1.61,4.31-2.14,6.35-1.6,2.05.54,3.7,1.68,4.98,3.41,1.1,1.5,1.51,3.02,1.22,4.57-.3,1.54-1.1,2.8-2.43,3.77ZM359.08,302.93l-21.6-29.42c-1.91-2.59-3.79-4.42-5.68-5.48-1.89-1.06-4.13-.63-6.73,1.27l-.86.64-1.91-2.59,10.38-7.63c2.02-1.49,3.85-2.29,5.48-2.42,1.64-.13,3.28.44,4.92,1.72,1.65,1.28,3.54,3.36,5.65,6.24l21.6,29.42-11.26,8.25Z"/>
    <path class="cls-1" d="M380.49,285.54l-15.59-33.01c-1.38-2.91-2.88-5.07-4.49-6.48-1.62-1.41-3.89-1.43-6.8-.06l-.97.46-1.37-2.92,9.61-4.54c1.94-.92,3.76-1.44,5.43-1.56,1.69-.11,3.2.33,4.56,1.35l.39-.18c.68-1.58,1.79-3.37,3.34-5.38,1.55-2,3.78-3.69,6.7-5.06,2.45-1.16,4.75-1.83,6.88-2.01,2.14-.17,4-.1,5.61.2,1.61.31,2.78.65,3.51,1.01.62-2.03,1.71-4.11,3.24-6.21,1.53-2.12,4.17-4.05,7.93-5.83,3.62-1.71,6.99-2.54,10.09-2.51,3.11.04,5.94,1.05,8.5,3.05,2.56,1.99,4.84,5.09,6.83,9.29l13.57,28.74-12.62,5.97-13.62-28.83c-2.23-4.73-4.55-7.71-6.96-8.95-2.4-1.24-4.71-1.33-6.91-.3-1.81.86-3.28,1.98-4.39,3.38-1.12,1.4-1.86,2.82-2.21,4.25.98.72,1.98,1.85,3.02,3.38,1.04,1.53,2.02,3.26,2.94,5.2l13.57,28.73-12.62,5.97-13.62-28.83c-2.23-4.73-4.55-7.7-6.95-8.94-2.41-1.24-4.72-1.34-6.91-.31-1.23.58-2.32,1.52-3.26,2.79-.94,1.27-1.63,2.45-2.07,3.53l18.25,38.64-12.62,5.96Z"/>
    <path class="cls-1" d="M460.92,252.4l-8.96-35.39c-.79-3.13-1.86-5.53-3.21-7.22-1.35-1.69-3.58-2.14-6.71-1.34l-1.04.26-.79-3.12,12.49-3.16c2.43-.62,4.42-.68,6-.19,1.56.5,2.86,1.64,3.91,3.44s2.01,4.44,2.89,7.91l8.96,35.38-13.53,3.43ZM453.87,196.15c-2.64.67-4.8.37-6.49-.91-1.69-1.27-2.79-2.95-3.32-5.02-.46-1.81-.27-3.37.58-4.69.85-1.32,2.07-2.19,3.67-2.59,2.63-.67,4.79-.36,6.48.91,1.69,1.27,2.79,2.95,3.33,5.03.46,1.8.26,3.36-.59,4.69-.84,1.32-2.07,2.18-3.66,2.58Z"/>
    <path class="cls-1" d="M547.49,244.11c-7.08-.18-13.25-1.99-18.5-5.45-5.25-3.46-9.27-8.04-12.07-13.77-2.79-5.73-4.1-12.13-3.93-19.22.17-7.08,1.79-13.41,4.87-19,3.07-5.58,7.31-9.97,12.72-13.16,5.41-3.2,11.66-4.71,18.74-4.54,7.16.17,13.32,1.99,18.5,5.45,5.18,3.45,9.17,8.04,11.96,13.76,2.79,5.73,4.11,12.13,3.93,19.22-.17,7.08-1.79,13.42-4.86,19-3.08,5.59-7.28,9.97-12.62,13.17-5.35,3.19-11.59,4.71-18.75,4.54ZM547.62,239.28c4.36.1,8.09-1.08,11.2-3.54,3.1-2.47,5.52-6.13,7.24-11,1.73-4.86,2.69-10.76,2.86-17.7.17-7.02-.5-12.97-1.98-17.87-1.49-4.91-3.73-8.66-6.7-11.29-2.98-2.61-6.65-3.97-11.02-4.08-4.29-.1-8,1.08-11.09,3.54-3.11,2.47-5.52,6.12-7.25,10.94-1.73,4.82-2.68,10.74-2.85,17.76-.17,6.94.5,12.88,1.98,17.82,1.49,4.94,3.72,8.72,6.7,11.33,2.98,2.61,6.61,3.97,10.91,4.08Z"/>
    <path class="cls-1" d="M593.42,246.29l8.16-35.58c.71-3.14.88-5.76.49-7.87-.4-2.11-2.17-3.53-5.31-4.24l-1.05-.24.72-3.15,10.36,2.37c2.36.54,4.17,1.27,5.39,2.17,1.22.91,2.06,2.14,2.51,3.72,1.51-.83,3.49-1.53,5.94-2.11,2.44-.58,5.23-.51,8.37.21,1.53.35,2.9.85,4.07,1.49,1.17.63,2.14,1.4,2.89,2.31.99,1.12,1.65,2.33,1.97,3.65.31,1.32.49,1.94.51,1.88l-6.27,2.86c-.42-1.05-1.14-2.17-2.15-3.36-1.01-1.19-2.39-1.98-4.14-2.38-2.23-.51-4.18-.63-5.86-.35-1.69.28-3.08.76-4.19,1.46-.15,1.29-.28,2.33-.38,3.11-.1.79-.22,1.46-.35,2.01l-8.05,35.16-13.61-3.12Z"/>
    <path class="cls-1" d="M645.87,284.29c-4.62-1.93-8.58-4.13-11.85-6.61-3.27-2.49-5.49-5.29-6.67-8.42-1.18-3.13-.97-6.61.62-10.44.99-2.38,2.52-4.16,4.58-5.31,2.07-1.15,4.37-1.87,6.88-2.14,2.52-.28,4.94-.23,7.27.11-1.09-.92-1.89-1.98-2.38-3.2-.51-1.21-.44-2.58.19-4.1.47-1.12,1.2-1.96,2.21-2.52,1-.55,2.27-.82,3.81-.79-2.36-2.15-4-4.82-4.91-8.03-.92-3.21-.74-6.34.52-9.38,1.59-3.83,3.81-6.47,6.66-7.92,2.85-1.45,6.09-2,9.7-1.67,3.62.34,7.41,1.34,11.38,2.99l20.82,8.65-1.12,2.68-9.42-2.53c2.34,2.21,3.93,4.78,4.78,7.68.84,2.91.78,5.52-.18,7.83-1.56,3.76-3.69,6.41-6.38,7.93-2.69,1.52-5.83,2.09-9.44,1.72-3.6-.37-7.55-1.46-11.85-3.24-2.97-1.24-5.44-2.07-7.4-2.5-1.95-.42-3.2.03-3.76,1.34-.47,1.12.14,2.21,1.84,3.27,1.7,1.05,4.01,2.23,6.96,3.54,4.47,1.93,8.3,4.24,11.49,6.92,3.18,2.69,5.39,5.61,6.63,8.81,1.23,3.18,1.12,6.53-.34,10.04-1.59,3.83-3.91,6.42-6.96,7.8-3.05,1.36-6.61,1.76-10.68,1.2-4.07-.56-8.42-1.81-13.04-3.74ZM647.73,279.83c3.3,1.37,6.31,1.6,9.02.67,2.72-.92,4.85-3.27,6.41-7.03,1.24-2.97,1.32-5.8.28-8.49-1.06-2.69-2.97-4.96-5.77-6.81l-4.45-2.43c-2.57.02-4.86.67-6.87,1.96-2.01,1.3-3.67,3.54-4.99,6.7-1.56,3.77-1.73,6.94-.47,9.52,1.26,2.57,3.54,4.55,6.84,5.92ZM662.77,243.65c2.32.96,4.57.9,6.77-.21,2.2-1.1,4.16-3.7,5.86-7.8,1.56-3.76,2.01-6.93,1.33-9.5-.68-2.56-2.17-4.33-4.48-5.29-2.32-.96-4.59-.85-6.83.35-2.25,1.2-4.2,3.81-5.88,7.84-1.71,4.1-2.17,7.32-1.4,9.66.77,2.34,2.32,3.98,4.63,4.95Z"/>
    <path class="cls-1" d="M696.81,287.58c-2.52-1.64-4.54-3.36-6.03-5.19-1.51-1.82-2.56-3.68-3.17-5.57-.61-1.89-.76-3.79-.45-5.73.31-1.93,1.05-3.79,2.21-5.59,1.87-2.89,4.14-4.9,6.79-6.03,2.66-1.13,6.09-1.09,10.32.16,4.22,1.24,9.55,3.95,15.98,8.1l1.34.88c2.34-3.6,3.85-6.67,4.56-9.2.7-2.54.7-4.67,0-6.41-.71-1.73-1.96-3.19-3.76-4.36-2.05-1.32-4.21-2-6.49-2.03-2.29-.03-4.88,1.41-7.78,4.31l-4.96-3.21c1.01-1.56,2.14-3.09,3.41-4.58,1.26-1.49,2.82-2.48,4.68-2.98,1.86-.5,4.17-.17,6.97,1,2.78,1.16,5.64,2.7,8.59,4.6s5.31,3.98,7.08,6.24c1.78,2.26,2.95,4.69,3.54,7.28.58,2.59.51,5.34-.21,8.24-.73,2.9-2.13,5.94-4.18,9.12l-15.76,24.33-7.66-4.96-.52-6.1-.45-.3c-1.6.76-3.66,1.05-6.19.86-2.53-.18-5.14-1.15-7.84-2.9ZM702.43,284.83c1.98,1.28,4.06,1.69,6.24,1.22,2.17-.46,3.91-1.17,5.21-2.12l7.29-11.27-1.35-.88c-4.33-2.8-7.94-4.03-10.85-3.7-2.9.33-5.39,2.1-7.44,5.28-1.64,2.53-2.34,4.78-2.13,6.75.21,1.97,1.22,3.54,3.02,4.71Z"/>
    <path class="cls-1" d="M729.75,308.95l25.2-26.4c2.23-2.33,3.71-4.5,4.45-6.52.73-2.01-.07-4.14-2.39-6.36l-.77-.74,2.22-2.33,7.68,7.34c1.76,1.68,2.94,3.22,3.53,4.62s.68,2.9.26,4.47c1.77,0,3.9.46,6.38,1.33,2.47.88,5.29,2.83,8.44,5.84,3.26,3.12,5.51,6.2,6.75,9.26,1.23,3.06,1.4,6.17.51,9.32-.89,3.16-2.94,6.42-6.15,9.79l-21.94,22.99-10.1-9.65,22.03-23.06c2.42-2.54,4.02-4.87,4.8-6.99.79-2.12.96-4.03.51-5.75-.45-1.71-1.39-3.26-2.84-4.64-1.45-1.38-2.91-2.42-4.37-3.13-1.46-.7-2.82-1.11-4.09-1.23l-30.02,31.44-10.09-9.64Z"/>
    <path class="cls-1" d="M772.65,353.43l28.9-22.3c2.54-1.96,4.33-3.91,5.34-5.81,1.01-1.92.53-4.15-1.43-6.69l-.66-.85,2.55-1.97,7.86,10.2c1.53,1.99,2.38,3.79,2.55,5.42.17,1.63-.36,3.29-1.59,4.97-1.24,1.68-3.28,3.6-6.11,5.8l-28.9,22.29-8.52-11.05ZM821.45,324.59c-1.66-2.15-2.25-4.26-1.75-6.31.5-2.06,1.59-3.74,3.3-5.05,1.47-1.13,2.98-1.58,4.54-1.32,1.54.25,2.82,1.02,3.83,2.33,1.66,2.15,2.24,4.26,1.74,6.31-.5,2.06-1.59,3.74-3.29,5.05-1.48,1.13-2.98,1.58-4.54,1.33-1.54-.26-2.83-1.03-3.83-2.34Z"/>
    <path class="cls-1" d="M799.68,395.55c-2.84-4.98-4.17-9.72-3.98-14.23.18-4.52,1.54-8.59,4.08-12.23,2.54-3.63,5.86-6.62,9.97-8.96,4.17-2.38,8.44-3.74,12.83-4.05,4.39-.32,8.58.58,12.55,2.72,3.98,2.14,7.4,5.69,10.24,10.67,2.02,3.55,3.48,6.68,4.38,9.42.91,2.75,1.11,5.04.6,6.89-.51,1.86-1.7,3.45-3.58,4.78-1.88,1.32-4.59,2.99-8.14,5.01l-1.59-2.79c3.83-2.53,6.15-5.47,6.94-8.85.79-3.37.12-6.93-2.01-10.66-1.28-2.24-3.06-3.81-5.36-4.73-2.3-.92-5.09-1.05-8.39-.4-3.3.64-7.06,2.17-11.29,4.58-4.11,2.34-7.29,4.74-9.56,7.19s-3.61,4.93-4.03,7.43c-.43,2.51.1,5.07,1.6,7.68,1.84,3.23,4.09,5.43,6.73,6.6,2.65,1.17,5.52,1.94,8.62,2.32l-.5,4.12c-1.86-.1-3.97-.43-6.33-1.02s-4.73-1.75-7.12-3.48c-2.38-1.73-4.6-4.39-6.66-8Z"/>
    <path class="cls-1" d="M819.27,438.42c-1.52-4.17-2.38-7.72-2.6-10.65-.22-2.93.07-5.3.86-7.11.71-1.62,2.1-2.93,4.17-3.91,2.09-.98,4.4-1.93,6.96-2.86l1.29,3.54c-3.04,1.71-5.31,4.01-6.81,6.91-1.51,2.91-1.53,6.38-.06,10.42,1.36,3.76,2.96,6.15,4.81,7.16,1.85,1,3.75,1.15,5.7.45s3.2-2.14,3.75-4.32c.54-2.18.92-4.76,1.14-7.72l.32-6.06c.29-4.67,1.12-8.55,2.53-11.64,1.39-3.1,3.74-5.24,7.03-6.43,4.37-1.58,8.36-.97,11.96,1.84,3.6,2.8,6.41,6.97,8.41,12.49,1.51,4.17,2.37,7.72,2.59,10.65.22,2.93-.07,5.3-.85,7.11-.71,1.62-2.11,2.93-4.18,3.91s-4.4,1.93-6.96,2.86l-1.28-3.54c3.03-1.71,5.3-4.01,6.81-6.91,1.5-2.91,1.52-6.38.06-10.42-1.1-3.02-2.54-4.98-4.35-5.84-1.8-.88-3.68-.95-5.62-.25-1.82.66-3.05,1.82-3.7,3.51-.65,1.68-1.04,3.79-1.18,6.36l-.33,6.98c-.27,5.35-1.04,9.58-2.31,12.71-1.27,3.13-3.69,5.33-7.25,6.62-4.37,1.58-8.42.83-12.11-2.24-3.7-3.08-6.63-7.62-8.8-13.6Z"/>
  </g>
  <g>
    <path class="cls-1" d="M241.36,611.32l12.49,40.02-5.21,1.63-5.33-17.07-46.96,14.65-1.86-5.97,46.96-14.65-5.3-16.99,5.21-1.62Z"/>
    <path class="cls-1" d="M257.19,650.38l2.54,5.53-52.6,24.27-2.55-5.53,52.61-24.27ZM239.46,693.39c3.4-1.57,5.63-3.74,6.68-6.48,1.05-2.75.82-5.78-.71-9.09-1.89-3.95-4.65-6.42-8.29-7.43-3.65-1.01-7.56-.56-11.71,1.36l-.89-1.92c4.36-2.01,8.24-2.99,11.66-2.97,3.42.03,6.41.96,8.95,2.8,2.54,1.84,4.58,4.43,6.13,7.79,1.37,2.98,1.95,5.8,1.76,8.47-.21,2.68-1.12,5.06-2.76,7.17-1.64,2.1-3.97,3.85-7,5.24l-22.89,10.57-2.55-5.54,21.63-9.97Z"/>
    <path class="cls-1" d="M264.17,702l3.1,5.16-35.2,21.16-3.1-5.15,35.2-21.17ZM279.15,696.46c.59.98.76,1.99.51,3.03-.27,1.03-.89,1.85-1.86,2.44-.94.56-1.93.71-2.99.48-1.06-.25-1.89-.86-2.48-1.84-.56-.93-.71-1.94-.45-3.01.27-1.08.88-1.89,1.81-2.45.98-.59,1.99-.75,3.04-.47,1.05.28,1.86.89,2.42,1.82Z"/>
    <path class="cls-1" d="M274.15,718.78l3.69,4.84-32.71,24.85-3.68-4.85,32.7-24.84ZM279.49,754.33c2.98-2.27,4.7-4.85,5.13-7.77.44-2.92-.45-5.82-2.65-8.72-2.69-3.45-5.92-5.28-9.7-5.48-3.77-.2-7.49,1.09-11.14,3.86l-1.27-1.68c3.81-2.9,7.39-4.71,10.74-5.41,3.35-.71,6.45-.45,9.33.8,2.88,1.25,5.43,3.35,7.66,6.28,1.99,2.61,3.17,5.25,3.55,7.9.38,2.65,0,5.19-1.14,7.59-1.14,2.4-3.05,4.62-5.7,6.63l-20.08,15.25-3.69-4.85,18.97-14.4Z"/>
    <path class="cls-1" d="M316.86,745.44l4.34,4.28-40.69,41.24-4.34-4.28,40.69-41.24ZM324.42,776.59l5.11,5.04-41.62.94,5.26-5.34,31.25-.65ZM307.61,780.84l-5.76,31.19-5.17-5.11,5.12-26.64,5.8.56Z"/>
    <path class="cls-1" d="M385.75,818.32c-.75-2.89-2.04-5.59-3.86-8.11-1.82-2.52-4.03-4.6-6.61-6.25-2.64-1.68-5.41-2.75-8.32-3.21-2.92-.47-5.8-.39-8.66.23-2.86.61-5.49,1.74-7.9,3.38-2.4,1.65-4.44,3.79-6.12,6.42-1.68,2.64-2.76,5.4-3.25,8.3s-.42,5.79.22,8.65c.64,2.88,1.78,5.54,3.44,7.98,1.66,2.44,3.82,4.52,6.5,6.22,2.41,1.53,5.13,2.6,8.15,3.19,3.01.6,5.97.71,8.86.32l.78,5.59c-2.24.24-4.6.21-7.08-.07-2.48-.29-4.89-.82-7.25-1.61-2.36-.8-4.58-1.86-6.64-3.16-3.38-2.15-6.14-4.76-8.26-7.82-2.13-3.05-3.6-6.35-4.43-9.9-.83-3.55-.94-7.14-.35-10.78.58-3.63,1.92-7.07,3.98-10.32,2.07-3.25,4.62-5.88,7.66-7.89,3.04-2.02,6.36-3.39,9.94-4.14,3.59-.73,7.23-.76,10.93-.08,3.69.69,7.23,2.11,10.61,4.26,2.12,1.34,4.02,2.92,5.75,4.73,1.72,1.8,3.19,3.75,4.43,5.82,1.23,2.09,2.17,4.26,2.83,6.53l-5.34,1.7ZM375.04,831.21l4.68,2.97-10.74,16.86-4.67-2.97,10.73-16.86Z"/>
    <path class="cls-1" d="M398.86,827.16l5.52,2.56-17.32,37.25-5.52-2.57,17.32-37.24ZM415.49,840.84c-2.76-1.34-5.43-1.88-8-1.61-2.56.28-4.89,1.23-6.98,2.87-2.09,1.65-3.79,3.91-5.13,6.79l-1.82-1.11c1.89-4.05,4.11-7.22,6.65-9.47,2.54-2.26,5.32-3.61,8.34-4.04,3.01-.44,6.1.08,9.26,1.55l-2.34,5.02Z"/>
    <path class="cls-1" d="M446.54,865.17c.77-2.65.92-5.11.45-7.38-.48-2.27-1.49-4.24-3.04-5.92-1.55-1.67-3.62-2.94-6.19-3.79-2.72-.91-5.3-1.09-7.77-.53-2.46.54-4.65,1.73-6.58,3.56-1.93,1.82-3.38,4.21-4.37,7.18-1.03,3.06-1.32,5.94-.88,8.64.45,2.7,1.53,5.05,3.28,7.06,1.74,2.01,4,3.47,6.77,4.39,4.94,1.66,9.52,1.32,13.75-1l2.12,4.25c-2.55,1.4-5.35,2.2-8.38,2.43-3.04.22-6.17-.21-9.37-1.29-3.85-1.29-6.98-3.24-9.36-5.88-2.38-2.63-3.9-5.71-4.54-9.21-.64-3.51-.31-7.19.97-11.04,1.29-3.85,3.24-6.98,5.85-9.37,2.6-2.39,5.65-3.93,9.15-4.59,3.49-.68,7.12-.41,10.88.79,4.19,1.4,7.38,3.47,9.54,6.2,2.16,2.73,3.36,5.93,3.58,9.6.23,3.67-.51,7.63-2.2,11.9l-32.96-11.01,1.44-4.3,27.84,9.3Z"/>
    <path class="cls-1" d="M492.04,874.88c.4-2.73.21-5.19-.57-7.37-.79-2.18-2.07-4-3.83-5.44-1.77-1.44-3.99-2.41-6.65-2.9-2.81-.52-5.4-.34-7.76.53-2.36.89-4.37,2.36-6.03,4.44-1.66,2.08-2.76,4.65-3.34,7.72-.59,3.17-.49,6.06.32,8.67.82,2.62,2.22,4.79,4.23,6.55,2,1.74,4.43,2.89,7.3,3.42,5.12.95,9.62,0,13.49-2.9l2.69,3.92c-2.34,1.73-4.99,2.93-7.97,3.56-2.98.64-6.14.65-9.46.03-3.98-.74-7.35-2.26-10.07-4.54-2.73-2.28-4.64-5.11-5.77-8.49-1.12-3.39-1.31-7.07-.56-11.07.74-3.99,2.24-7.36,4.5-10.08,2.25-2.74,5.06-4.67,8.43-5.82,3.36-1.14,7-1.38,10.89-.71,4.35.81,7.79,2.42,10.3,4.81,2.52,2.4,4.15,5.4,4.88,9.01.72,3.61.55,7.63-.54,12.1l-34.16-6.35.83-4.46,28.86,5.37Z"/>
    <path class="cls-1" d="M509.2,858.87l6.08.24-1.59,41.04-6.08-.24,1.59-41.04ZM540.06,877.34c.14-3.75-.77-6.71-2.75-8.9-1.97-2.18-4.78-3.35-8.42-3.49-4.37-.11-7.84,1.22-10.4,4.01-2.55,2.79-3.92,6.48-4.1,11.06l-2.11-.09c.18-4.78,1.07-8.69,2.64-11.73,1.58-3.04,3.76-5.27,6.55-6.7,2.79-1.43,6.03-2.07,9.73-1.93,3.28.12,6.06.89,8.35,2.28s4,3.29,5.13,5.7c1.13,2.42,1.63,5.29,1.51,8.62l-.98,25.2-6.08-.23.92-23.8Z"/>
    <path class="cls-1" d="M562.41,900.76c-1.4.09-2.49-.23-3.26-.93-.77-.71-1.18-1.53-1.24-2.47-.07-1.1.24-2.01.93-2.75.68-.74,1.54-1.15,2.58-1.21.98-.06,1.88.23,2.67.86.79.63,1.23,1.52,1.3,2.66.03.57-.04,1.12-.22,1.62s-.38,1.02-.61,1.55l-3.53,9.13-3.43.2,3.31-11.46,1.5,2.8Z"/>
    <path class="cls-1" d="M589.61,842.48l6.12-1.24,9.81,48.29,23.49-4.77,1.08,5.28-29.61,6-10.88-53.57Z"/>
    <path class="cls-1" d="M627.74,831.3c1.09-.33,2.11-.24,3.05.27.94.51,1.57,1.31,1.91,2.4.31,1.05.22,2.05-.28,3.01-.5.97-1.3,1.62-2.39,1.94-1.05.31-2.06.21-3.03-.31-.97-.51-1.61-1.31-1.93-2.35-.33-1.09-.23-2.12.3-3.06.53-.95,1.32-1.58,2.37-1.9ZM629.41,847.18l5.76-1.73,11.83,39.33-5.76,1.73-11.83-39.34Z"/>
    <path class="cls-1" d="M641.63,843.95l5.94-2.39,25.34,27.85-1.08-37.61,5.72-2.3.33,44.13-5.86,2.36-30.4-32.04Z"/>
    <path class="cls-1" d="M716.41,828.67c-1.43-2.36-3.15-4.14-5.14-5.32-2-1.18-4.14-1.76-6.42-1.75-2.28.02-4.6.69-6.97,2-2.51,1.38-4.38,3.17-5.64,5.36-1.26,2.19-1.87,4.61-1.82,7.26.05,2.66.83,5.35,2.34,8.08,1.56,2.82,3.49,4.98,5.78,6.47,2.3,1.5,4.77,2.29,7.42,2.35,2.66.08,5.26-.6,7.82-2.01,4.55-2.53,7.4-6.13,8.55-10.82l4.57,1.31c-.7,2.83-1.98,5.43-3.88,7.83-1.89,2.38-4.31,4.4-7.26,6.04-3.56,1.97-7.11,2.95-10.66,2.92-3.56-.02-6.84-.97-9.86-2.88-3.01-1.9-5.51-4.61-7.48-8.17-1.96-3.55-2.95-7.09-2.95-10.64s.92-6.82,2.79-9.86c1.86-3.02,4.51-5.52,7.94-7.48,3.87-2.15,7.54-3.1,11.01-2.86,3.47.25,6.64,1.53,9.5,3.84,2.86,2.32,5.29,5.54,7.28,9.66l-30.38,16.86-2.2-3.96,25.67-14.25Z"/>
    <path class="cls-1" d="M763.6,766.98c-2.97-.26-5.93.09-8.87,1.02s-5.57,2.39-7.84,4.37c-2.32,2.01-4.13,4.34-5.42,6.97-1.3,2.64-2.04,5.4-2.23,8.28-.19,2.89.17,5.73,1.08,8.52.91,2.79,2.38,5.38,4.43,7.74,2.01,2.32,4.34,4.13,6.97,5.42,2.64,1.3,5.39,2.05,8.25,2.25,2.86.21,5.7-.13,8.51-1.02,2.81-.89,5.39-2.34,7.7-4.35,2.29-1.97,4.1-4.32,5.43-7.02,1.33-2.72,2.15-5.57,2.44-8.58l5.45.45c-.25,2.42-.8,4.82-1.66,7.22-.85,2.39-1.96,4.63-3.33,6.71-1.37,2.08-3.01,3.96-4.95,5.62-2.98,2.59-6.24,4.46-9.75,5.61-3.52,1.14-7.08,1.6-10.7,1.36-3.61-.24-7.08-1.16-10.4-2.76-3.32-1.61-6.23-3.86-8.76-6.78-2.52-2.91-4.32-6.1-5.4-9.58-1.08-3.47-1.47-7.02-1.17-10.66s1.29-7.1,2.96-10.41c1.68-3.32,4.03-6.28,7.06-8.91,1.89-1.63,3.94-3,6.16-4.09,2.22-1.1,4.52-1.91,6.9-2.41,2.37-.51,4.78-.72,7.21-.62l-.07,5.64Z"/>
    <path class="cls-1" d="M761.01,747.25l4.13-4.48,42.63,39.22-4.12,4.48-42.64-39.22Z"/>
    <path class="cls-1" d="M819.16,731.05c-2.27-1.57-4.56-2.5-6.86-2.75-2.31-.27-4.5.07-6.58,1.02-2.08.94-3.93,2.5-5.55,4.67-1.72,2.29-2.71,4.69-2.96,7.2-.25,2.51.18,4.97,1.31,7.37,1.12,2.41,2.94,4.55,5.43,6.42,2.58,1.93,5.22,3.12,7.93,3.55,2.7.44,5.28.14,7.73-.88,2.46-1.02,4.57-2.7,6.31-5.02,3.13-4.17,4.26-8.63,3.39-13.37l4.7-.67c.52,2.86.41,5.77-.34,8.72-.75,2.95-2.14,5.78-4.17,8.48-2.44,3.25-5.29,5.59-8.54,7.02-3.25,1.43-6.64,1.89-10.17,1.39-3.54-.5-6.92-1.97-10.17-4.4-3.25-2.44-5.59-5.27-7.04-8.5-1.44-3.23-1.93-6.61-1.47-10.14.46-3.52,1.86-6.88,4.19-10.07,2.65-3.54,5.61-5.91,8.88-7.1,3.27-1.19,6.68-1.32,10.24-.37,3.56.94,7.09,2.9,10.6,5.85l-20.85,27.79-3.62-2.72,17.61-23.49Z"/>
    <path class="cls-1" d="M837.53,693.05c-2.74-1.52-5.3-1.89-7.7-1.11-2.39.79-4.48,2.77-6.24,5.96-1.12,2-1.82,4.14-2.14,6.41-.31,2.28-.31,4.71-.04,7.31l-4.73.31c-.19-2.13-.24-4.12-.16-5.99.09-1.86.38-3.72.91-5.57.52-1.85,1.35-3.8,2.49-5.85,2.48-4.46,5.47-7.26,9-8.41,3.52-1.13,7.21-.67,11.06,1.41l23.72,13.08-2.88,5.19-23.29-12.74ZM837.7,707.7c-1.67,3-2.43,5.56-2.29,7.66.14,2.11,1.23,3.73,3.28,4.86,2.05,1.13,4.11,1.32,6.19.52,2.07-.78,3.81-2.45,5.23-4.99,1.16-2.1,1.87-4.17,2.12-6.23.26-2.07.06-4.01-.6-5.83-.66-1.82-1.78-3.44-3.37-4.86l5.06,1.02c2.15,2.87,3.24,5.94,3.23,9.21,0,3.28-.94,6.62-2.84,10.04-1.36,2.46-3.04,4.34-5.01,5.65-1.98,1.32-4.07,2.02-6.26,2.11-2.19.1-4.32-.43-6.37-1.56-3.09-1.73-4.89-4.27-5.39-7.64-.51-3.37.39-7.2,2.69-11.46l7.09-12.76,3.96,2.19-6.7,12.09Z"/>
    <path class="cls-1" d="M832.79,670.19l2.16-5.7,38.41,14.54-2.16,5.69-38.41-14.54ZM860.1,646.79c-3.51-1.32-6.61-1.4-9.3-.22-2.71,1.17-4.7,3.47-5.99,6.87-1.5,4.11-1.33,7.83.51,11.13,1.83,3.31,4.9,5.78,9.18,7.4l-.74,1.97c-4.48-1.7-7.91-3.77-10.29-6.23-2.38-2.46-3.8-5.24-4.27-8.34s-.05-6.38,1.26-9.83c1.16-3.07,2.76-5.47,4.81-7.2,2.04-1.73,4.39-2.75,7.03-3.06,2.65-.31,5.54.13,8.64,1.32l23.59,8.92-2.15,5.7-22.27-8.44Z"/>
    <path class="cls-1" d="M836.36,621.48l1.51-5.66,12.68,3.38,23.24,7.08-1.04,3.92-23.7-5.35-12.68-3.37ZM882.17,630.62c.27-1.01.85-1.77,1.73-2.29.9-.51,1.87-.64,2.93-.35,1.06.28,1.84.87,2.35,1.76.51.89.65,1.84.37,2.84-.28,1.06-.87,1.85-1.75,2.36-.9.51-1.87.63-2.93.35-1.06-.29-1.84-.87-2.35-1.76-.51-.89-.64-1.87-.35-2.92Z"/>
  </g>
</svg>